# xmcd
# 
# Track frame offsets:
#     150
#     17885
#     35275
#     46595
#     68675
#     81185
#     100435
#     120262
#     149555
# 
# Disc length: 2217
# 
# Revision: 5
# Processed by: cddbd v1.5.2PL0 Copyright (c) Steve Scherf et al.
# Submitted via: fre:ac v1.0.31
# 
DISCID=6e08a709
DTITLE=The Marshall Tucker Band - Searchin' For A Rainbow
DYEAR=1975
DGENRE=Rock/Pop
TTITLE0=Fire on the Mountain
TTITLE1=Searchin' for a Rainbow
TTITLE2=Walkin' and Talkin'
TTITLE3=Virginia
TTITLE4=Bob Away My Blues
TTITLE5=Keeps Me From All Wrong
TTITLE6=Bound and Determined
TTITLE7=Can't You See? (Live)
TTITLE8=It Takes Time (Live Bonus Track)
EXTD=Real nice country/rock album. \\nSome Allman brothers flavor, some Charlie Daniels\\nsounds too. Very nice album
EXTT0=
EXTT1=
EXTT2=
EXTT3=
EXTT4=
EXTT5=
EXTT6=
EXTT7=
EXTT8=
PLAYORDER=
